Scancardium.ufo
<glyph name="hyphen" format="2">
	<advance width="609"/>
	<unicode hex="002D"/>
	<note>
		hyphen
	</note>
	<outline>
		<contour>
			<point x="509" y="304" type="line"/>
			<point x="509" y="394" type="line"/>
			<point x="100" y="394" type="line"/>
			<point x="100" y="304" type="line"/>
		</contour>
	</outline>
</glyph>
<glyph name="zero" format="2">
	<advance width="609"/>
	<unicode hex="0030"/>
	<note>
		zero
	</note>
	<outline>
		<contour>
			<point x="106" y="273"/>
			<point x="123" y="143"/>
			<point x="167" y="45"/>
			<point x="244" y="-11"/>
			<point x="304" y="-11" type="qcurve" smooth="yes"/>
			<point x="364" y="-11"/>
			<point x="441" y="45"/>
			<point x="486" y="143"/>
			<point x="503" y="273"/>
			<point x="503" y="348" type="qcurve" smooth="yes"/>
			<point x="503" y="423"/>
			<point x="485" y="553"/>
			<point x="440" y="650"/>
			<point x="363" y="706"/>
			<point x="304" y="706" type="qcurve" smooth="yes"/>
			<point x="245" y="706"/>
			<point x="168" y="650"/>
			<point x="123" y="553"/>
			<point x="106" y="423"/>
			<point x="106" y="348" type="qcurve" smooth="yes"/>
		</contour>
		<contour>
			<point x="193" y="402"/>
			<point x="199" y="500"/>
			<point x="221" y="573"/>
			<point x="266" y="616"/>
			<point x="304" y="616" type="qcurve" smooth="yes"/>
			<point x="341" y="616"/>
			<point x="385" y="573"/>
			<point x="408" y="500"/>
			<point x="415" y="402"/>
			<point x="415" y="348" type="qcurve" smooth="yes"/>
			<point x="415" y="294"/>
			<point x="407" y="197"/>
			<point x="384" y="124"/>
			<point x="340" y="81"/>
			<point x="304" y="81" type="qcurve" smooth="yes"/>
			<point x="268" y="81"/>
			<point x="224" y="124"/>
			<point x="201" y="197"/>
			<point x="193" y="294"/>
			<point x="193" y="348" type="qcurve" smooth="yes"/>
		</contour>
	</outline>
</glyph>
<glyph name="one" format="2">
	<advance width="609"/>
	<unicode hex="0031"/>
	<note>
		one
	</note>
	<outline>
		<contour>
			<point x="266" y="599" type="line"/>
			<point x="266" y="85" type="line"/>
			<point x="141" y="85" type="line"/>
			<point x="141" y="0" type="line"/>
			<point x="478" y="0" type="line"/>
			<point x="478" y="86" type="line"/>
			<point x="355" y="86" type="line"/>
			<point x="355" y="706" type="line"/>
			<point x="311" y="706" type="line"/>
			<point x="132" y="649" type="line"/>
			<point x="132" y="557" type="line"/>
		</contour>
	</outline>
</glyph>
<glyph name="two" format="2">
	<advance width="609"/>
	<unicode hex="0032"/>
	<note>
		two
	</note>
	<outline>
		<contour>
			<point x="196" y="535" type="line"/>
			<point x="196" y="546"/>
			<point x="205" y="575"/>
			<point x="228" y="600"/>
			<point x="268" y="617"/>
			<point x="300" y="617" type="qcurve" smooth="yes"/>
			<point x="328" y="617"/>
			<point x="364" y="596"/>
			<point x="385" y="560"/>
			<point x="391" y="510"/>
			<point x="390" y="480" type="qcurve" smooth="yes"/>
			<point x="389" y="453"/>
			<point x="359" y="395"/>
			<point x="312" y="332"/>
			<point x="254" y="264"/>
			<point x="196" y="191"/>
			<point x="142" y="113"/>
			<point x="123" y="72" type="qcurve"/>
			<point x="123" y="0" type="line"/>
			<point x="486" y="0" type="line"/>
			<point x="486" y="91" type="line"/>
			<point x="247" y="91" type="line"/>
			<point x="255" y="118"/>
			<point x="296" y="175"/>
			<point x="346" y="234"/>
			<point x="400" y="298"/>
			<point x="445" y="368"/>
			<point x="474" y="444"/>
			<point x="475" y="487" type="qcurve" smooth="yes"/>
			<point x="475" y="524"/>
			<point x="464" y="599"/>
			<point x="427" y="660"/>
			<point x="357" y="699"/>
			<point x="300" y="700" type="qcurve" smooth="yes"/>
			<point x="246" y="701"/>
			<point x="174" y="665"/>
			<point x="132" y="614"/>
			<point x="115" y="556"/>
			<point x="114" y="535" type="qcurve"/>
		</contour>
	</outline>
</glyph>
<glyph name="three" format="2">
	<advance width="609"/>
	<unicode hex="0033"/>
	<note>
		three
	</note>
	<outline>
		<contour>
			<point x="134" y="575" type="line"/>
			<point x="151" y="585"/>
			<point x="173" y="594" type="qcurve" smooth="yes"/>
			<point x="192" y="602"/>
			<point x="245" y="614"/>
			<point x="279" y="614" type="qcurve" smooth="yes"/>
			<point x="342" y="614"/>
			<point x="399" y="555"/>
			<point x="399" y="505" type="qcurve" smooth="yes"/>
			<point x="399" y="451"/>
			<point x="326" y="389"/>
			<point x="266" y="389" type="qcurve" smooth="yes"/>
			<point x="168" y="389" type="line"/>
			<point x="168" y="299" type="line"/>
			<point x="266" y="299" type="line" smooth="yes"/>
			<point x="295" y="299"/>
			<point x="346" y="286"/>
			<point x="383" y="261"/>
			<point x="405" y="222"/>
			<point x="405" y="196" type="qcurve" smooth="yes"/>
			<point x="405" y="142"/>
			<point x="340" y="83"/>
			<point x="274" y="83" type="qcurve" smooth="yes"/>
			<point x="242" y="83"/>
			<point x="186" y="96"/>
			<point x="165" y="104" type="qcurve" smooth="yes"/>
			<point x="140" y="113"/>
			<point x="120" y="125" type="qcurve"/>
			<point x="120" y="29" type="line"/>
			<point x="135" y="18"/>
			<point x="158" y="10" type="qcurve" smooth="yes"/>
			<point x="178" y="2"/>
			<point x="236" y="-9"/>
			<point x="277" y="-9" type="qcurve" smooth="yes"/>
			<point x="327" y="-9"/>
			<point x="407" y="24"/>
			<point x="463" y="80"/>
			<point x="493" y="151"/>
			<point x="493" y="189" type="qcurve" smooth="yes"/>
			<point x="493" y="225"/>
			<point x="469" y="280"/>
			<point x="430" y="318"/>
			<point x="380" y="342"/>
			<point x="354" y="348" type="qcurve"/>
			<point x="381" y="356"/>
			<point x="429" y="383"/>
			<point x="465" y="425"/>
			<point x="486" y="484"/>
			<point x="486" y="524" type="qcurve" smooth="yes"/>
			<point x="486" y="575"/>
			<point x="450" y="643"/>
			<point x="393" y="685"/>
			<point x="322" y="703"/>
			<point x="287" y="703" type="qcurve" smooth="yes"/>
			<point x="251" y="703"/>
			<point x="195" y="693"/>
			<point x="175" y="688" type="qcurve" smooth="yes"/>
			<point x="152" y="682"/>
			<point x="134" y="674" type="qcurve"/>
		</contour>
	</outline>
</glyph>
<glyph name="four" format="2">
	<advance width="609"/>
	<unicode hex="0034"/>
	<note>
		four
	</note>
	<outline>
		<contour>
			<point x="349" y="694" type="line"/>
			<point x="97" y="256" type="line"/>
			<point x="97" y="182" type="line"/>
			<point x="312" y="182" type="line"/>
			<point x="357" y="181" type="line"/>
			<point x="357" y="118" type="line"/>
			<point x="357" y="1" type="line"/>
			<point x="440" y="1" type="line"/>
			<point x="440" y="118" type="line"/>
			<point x="439" y="182" type="line"/>
			<point x="481" y="182" type="line"/>
			<point x="516" y="182" type="line"/>
			<point x="516" y="271" type="line"/>
			<point x="478" y="271" type="line"/>
			<point x="441" y="270" type="line"/>
			<point x="440" y="312" type="line"/>
			<point x="440" y="694" type="line"/>
		</contour>
		<contour>
			<point x="357" y="311" type="line"/>
			<point x="358" y="270" type="line"/>
			<point x="312" y="271" type="line"/>
			<point x="191" y="271" type="line"/>
			<point x="360" y="558" type="line"/>
			<point x="357" y="527" type="line"/>
		</contour>
	</outline>
</glyph>
<glyph name="five" format="2">
	<advance width="609"/>
	<unicode hex="0035"/>
	<note>
		five
	</note>
	<outline>
		<contour>
			<point x="157" y="694" type="line"/>
			<point x="127" y="326" type="line"/>
			<point x="134" y="324"/>
			<point x="140" y="322" type="qcurve" smooth="yes"/>
			<point x="145" y="320"/>
			<point x="154" y="317"/>
			<point x="154" y="318" type="qcurve"/>
			<point x="160" y="324"/>
			<point x="185" y="338"/>
			<point x="216" y="349"/>
			<point x="250" y="355"/>
			<point x="266" y="355" type="qcurve" smooth="yes"/>
			<point x="328" y="353"/>
			<point x="391" y="284"/>
			<point x="390" y="226" type="qcurve" smooth="yes"/>
			<point x="389" y="184"/>
			<point x="342" y="128"/>
			<point x="271" y="95"/>
			<point x="190" y="80"/>
			<point x="154" y="78" type="qcurve" smooth="yes"/>
			<point x="146" y="77"/>
			<point x="120" y="76"/>
			<point x="118" y="76" type="qcurve"/>
			<point x="113" y="-10" type="line"/>
			<point x="139" y="-10" type="line" smooth="yes"/>
			<point x="248" y="-11"/>
			<point x="384" y="40"/>
			<point x="459" y="116"/>
			<point x="484" y="204"/>
			<point x="482" y="240" type="qcurve" smooth="yes"/>
			<point x="479" y="291"/>
			<point x="445" y="369"/>
			<point x="392" y="422"/>
			<point x="324" y="449"/>
			<point x="287" y="449" type="qcurve"/>
			<point x="226" y="443" type="line"/>
			<point x="239" y="609" type="line"/>
			<point x="453" y="609" type="line"/>
			<point x="453" y="694" type="line"/>
		</contour>
	</outline>
</glyph>
<glyph name="six" format="2">
	<advance width="609"/>
	<unicode hex="0036"/>
	<note>
		six
	</note>
	<outline>
		<contour>
			<point x="295" y="703"/>
			<point x="202" y="644"/>
			<point x="141" y="542"/>
			<point x="111" y="406"/>
			<point x="111" y="330" type="qcurve" smooth="yes"/>
			<point x="111" y="259"/>
			<point x="134" y="135"/>
			<point x="182" y="44"/>
			<point x="255" y="-8"/>
			<point x="305" y="-8" type="qcurve" smooth="yes"/>
			<point x="345" y="-8"/>
			<point x="415" y="24"/>
			<point x="467" y="86"/>
			<point x="498" y="175"/>
			<point x="498" y="231" type="qcurve" smooth="yes"/>
			<point x="498" y="280"/>
			<point x="474" y="363"/>
			<point x="429" y="423"/>
			<point x="364" y="456"/>
			<point x="323" y="456" type="qcurve" smooth="yes"/>
			<point x="278" y="456"/>
			<point x="218" y="407"/>
			<point x="200" y="373" type="qcurve"/>
			<point x="203" y="425"/>
			<point x="224" y="516"/>
			<point x="262" y="582"/>
			<point x="318" y="620"/>
			<point x="356" y="620" type="qcurve" smooth="yes"/>
			<point x="382" y="620"/>
			<point x="422" y="611"/>
			<point x="436" y="606" type="qcurve" smooth="yes"/>
			<point x="452" y="600"/>
			<point x="464" y="593" type="qcurve"/>
			<point x="464" y="686" type="line"/>
			<point x="455" y="690"/>
			<point x="440" y="694" type="qcurve" smooth="yes"/>
			<point x="427" y="697"/>
			<point x="386" y="703"/>
			<point x="357" y="703" type="qcurve" smooth="yes"/>
		</contour>
		<contour>
			<point x="206" y="237"/>
			<point x="216" y="296"/>
			<point x="240" y="340"/>
			<point x="280" y="367"/>
			<point x="307" y="367" type="qcurve" smooth="yes"/>
			<point x="361" y="367"/>
			<point x="412" y="291"/>
			<point x="412" y="230" type="qcurve" smooth="yes"/>
			<point x="412" y="190"/>
			<point x="395" y="134"/>
			<point x="366" y="98"/>
			<point x="330" y="81"/>
			<point x="311" y="81" type="qcurve" smooth="yes"/>
			<point x="271" y="81"/>
			<point x="218" y="141"/>
			<point x="209" y="206" type="qcurve" smooth="yes"/>
		</contour>
	</outline>
</glyph>
<glyph name="seven" format="2">
	<advance width="609"/>
	<unicode hex="0037"/>
	<note>
		seven
	</note>
	<outline>
		<contour>
			<point x="147" y="604" type="line"/>
			<point x="413" y="604" type="line"/>
			<point x="169" y="0" type="line"/>
			<point x="256" y="0" type="line"/>
			<point x="504" y="611" type="line"/>
			<point x="504" y="695" type="line"/>
			<point x="147" y="695" type="line"/>
		</contour>
	</outline>
</glyph>
<glyph name="eight" format="2">
	<advance width="609"/>
	<unicode hex="0038"/>
	<note>
		eight
	</note>
	<outline>
		<contour>
			<point x="71" y="141"/>
			<point x="109" y="66"/>
			<point x="172" y="17"/>
			<point x="255" y="-7"/>
			<point x="301" y="-7" type="qcurve" smooth="yes"/>
			<point x="342" y="-7"/>
			<point x="425" y="18"/>
			<point x="491" y="69"/>
			<point x="533" y="147"/>
			<point x="533" y="200" type="qcurve" smooth="yes"/>
			<point x="533" y="231"/>
			<point x="512" y="293"/>
			<point x="473" y="349"/>
			<point x="416" y="393"/>
			<point x="381" y="407" type="qcurve"/>
			<point x="429" y="437"/>
			<point x="468" y="491"/>
			<point x="473" y="528" type="qcurve" smooth="yes"/>
			<point x="478" y="559"/>
			<point x="466" y="623"/>
			<point x="426" y="676"/>
			<point x="355" y="710"/>
			<point x="300" y="710" type="qcurve" smooth="yes"/>
			<point x="246" y="710"/>
			<point x="174" y="674"/>
			<point x="133" y="620"/>
			<point x="121" y="557"/>
			<point x="126" y="529" type="qcurve" smooth="yes"/>
			<point x="133" y="490"/>
			<point x="176" y="435"/>
			<point x="223" y="404" type="qcurve"/>
			<point x="149" y="362"/>
			<point x="71" y="253"/>
			<point x="71" y="192" type="qcurve" smooth="yes"/>
		</contour>
		<contour>
			<point x="164" y="238"/>
			<point x="193" y="287"/>
			<point x="235" y="323"/>
			<point x="282" y="348"/>
			<point x="300" y="359" type="qcurve"/>
			<point x="324" y="348"/>
			<point x="374" y="324"/>
			<point x="415" y="289"/>
			<point x="442" y="241"/>
			<point x="442" y="205" type="qcurve" smooth="yes"/>
			<point x="442" y="175"/>
			<point x="420" y="128"/>
			<point x="382" y="95"/>
			<point x="332" y="78"/>
			<point x="304" y="78" type="qcurve" smooth="yes"/>
			<point x="275" y="78"/>
			<point x="224" y="94"/>
			<point x="186" y="126"/>
			<point x="164" y="172"/>
			<point x="164" y="202" type="qcurve" smooth="yes"/>
		</contour>
		<contour>
			<point x="210" y="586"/>
			<point x="255" y="630"/>
			<point x="300" y="630" type="qcurve" smooth="yes"/>
			<point x="345" y="630"/>
			<point x="392" y="584"/>
			<point x="392" y="547" type="qcurve" smooth="yes"/>
			<point x="392" y="524"/>
			<point x="373" y="492"/>
			<point x="345" y="468"/>
			<point x="314" y="448"/>
			<point x="301" y="438" type="qcurve"/>
			<point x="286" y="448"/>
			<point x="254" y="468"/>
			<point x="227" y="493"/>
			<point x="210" y="526"/>
			<point x="210" y="549" type="qcurve" smooth="yes"/>
		</contour>
	</outline>
</glyph>
<glyph name="nine" format="2">
	<advance width="609"/>
	<unicode hex="0039"/>
	<note>
		nine
	</note>
	<outline>
		<contour>
			<point x="314" y="-8"/>
			<point x="407" y="51"/>
			<point x="468" y="153"/>
			<point x="498" y="288"/>
			<point x="498" y="365" type="qcurve" smooth="yes"/>
			<point x="498" y="436"/>
			<point x="475" y="560"/>
			<point x="427" y="651"/>
			<point x="354" y="703"/>
			<point x="304" y="703" type="qcurve" smooth="yes"/>
			<point x="264" y="703"/>
			<point x="194" y="670"/>
			<point x="141" y="609"/>
			<point x="111" y="520"/>
			<point x="111" y="464" type="qcurve" smooth="yes"/>
			<point x="111" y="415"/>
			<point x="135" y="332"/>
			<point x="178" y="272"/>
			<point x="240" y="239"/>
			<point x="279" y="239" type="qcurve" smooth="yes"/>
			<point x="328" y="239"/>
			<point x="391" y="297"/>
			<point x="409" y="338" type="qcurve"/>
			<point x="408" y="282"/>
			<point x="388" y="187"/>
			<point x="350" y="119"/>
			<point x="293" y="81"/>
			<point x="254" y="81" type="qcurve" smooth="yes"/>
			<point x="228" y="81"/>
			<point x="186" y="92"/>
			<point x="170" y="99" type="qcurve" smooth="yes"/>
			<point x="152" y="107"/>
			<point x="137" y="118" type="qcurve"/>
			<point x="137" y="19" type="line"/>
			<point x="149" y="11"/>
			<point x="166" y="5" type="qcurve" smooth="yes"/>
			<point x="180" y="0"/>
			<point x="223" y="-8"/>
			<point x="252" y="-8" type="qcurve" smooth="yes"/>
		</contour>
		<contour>
			<point x="243" y="328"/>
			<point x="190" y="404"/>
			<point x="190" y="465" type="qcurve" smooth="yes"/>
			<point x="190" y="505"/>
			<point x="208" y="561"/>
			<point x="237" y="597"/>
			<point x="274" y="614"/>
			<point x="294" y="614" type="qcurve" smooth="yes"/>
			<point x="334" y="614"/>
			<point x="389" y="553"/>
			<point x="402" y="484" type="qcurve"/>
			<point x="404" y="460"/>
			<point x="393" y="405"/>
			<point x="367" y="358"/>
			<point x="326" y="328"/>
			<point x="298" y="328" type="qcurve" smooth="yes"/>
		</contour>
	</outline>
</glyph>
<glyph name="A" format="2">
	<advance width="609"/>
	<unicode hex="0041"/>
	<note>
		A
	</note>
	<outline>
		<contour>
			<point x="343" y="664" type="line"/>
			<point x="267" y="664" type="line"/>
			<point x="43" y="0" type="line"/>
			<point x="138" y="0" type="line"/>
			<point x="150" y="37"/>
			<point x="174" y="115"/>
			<point x="186" y="152" type="qcurve"/>
			<point x="422" y="152" type="line"/>
			<point x="472" y="0" type="line"/>
			<point x="567" y="0" type="line"/>
		</contour>
		<contour>
			<point x="293" y="482" type="line" smooth="yes"/>
			<point x="296" y="491"/>
			<point x="303" y="515"/>
			<point x="305" y="526" type="qcurve"/>
			<point x="307" y="515"/>
			<point x="314" y="493"/>
			<point x="317" y="482" type="qcurve" smooth="yes"/>
			<point x="395" y="239" type="line"/>
			<point x="215" y="239" type="line"/>
		</contour>
	</outline>
</glyph>
<glyph name="B" format="2">
	<advance width="609"/>
	<unicode hex="0042"/>
	<note>
		B
	</note>
	<outline>
		<contour>
			<point x="121" y="-2" type="line"/>
			<point x="278" y="-2" type="line" smooth="yes"/>
			<point x="325" y="-3"/>
			<point x="408" y="18"/>
			<point x="469" y="64"/>
			<point x="504" y="138"/>
			<point x="504" y="191" type="qcurve" smooth="yes"/>
			<point x="504" y="223"/>
			<point x="481" y="272"/>
			<point x="447" y="309"/>
			<point x="407" y="336"/>
			<point x="390" y="346" type="qcurve"/>
			<point x="435" y="365"/>
			<point x="477" y="440"/>
			<point x="477" y="491" type="qcurve" smooth="yes"/>
			<point x="477" y="527"/>
			<point x="448" y="590"/>
			<point x="394" y="636"/>
			<point x="316" y="663"/>
			<point x="268" y="664" type="qcurve" smooth="yes"/>
			<point x="121" y="661" type="line"/>
		</contour>
		<contour>
			<point x="297" y="291"/>
			<point x="345" y="277"/>
			<point x="387" y="251"/>
			<point x="415" y="212"/>
			<point x="415" y="186" type="qcurve" smooth="yes"/>
			<point x="415" y="156"/>
			<point x="393" y="114"/>
			<point x="355" y="89"/>
			<point x="304" y="77"/>
			<point x="276" y="77" type="qcurve" smooth="yes"/>
			<point x="260" y="77"/>
			<point x="221" y="77"/>
			<point x="204" y="78" type="qcurve"/>
			<point x="204" y="294" type="line"/>
			<point x="221" y="295"/>
			<point x="258" y="293"/>
			<point x="276" y="292" type="qcurve" smooth="yes"/>
		</contour>
		<contour>
			<point x="262" y="583" type="line" smooth="yes"/>
			<point x="319" y="581"/>
			<point x="391" y="523"/>
			<point x="391" y="470" type="qcurve" smooth="yes"/>
			<point x="391" y="443"/>
			<point x="365" y="405"/>
			<point x="321" y="381"/>
			<point x="262" y="371"/>
			<point x="229" y="371" type="qcurve" smooth="yes"/>
			<point x="204" y="371" type="line"/>
			<point x="204" y="582" type="line"/>
		</contour>
	</outline>
</glyph>
<glyph name="C" format="2">
	<advance width="609"/>
	<unicode hex="0043"/>
	<note>
		C
	</note>
	<outline>
		<contour>
			<point x="292" y="676"/>
			<point x="189" y="629"/>
			<point x="117" y="540"/>
			<point x="79" y="412"/>
			<point x="79" y="332" type="qcurve" smooth="yes"/>
			<point x="79" y="251"/>
			<point x="118" y="123"/>
			<point x="189" y="34"/>
			<point x="291" y="-13"/>
			<point x="354" y="-13" type="qcurve" smooth="yes"/>
			<point x="396" y="-13"/>
			<point x="454" y="0"/>
			<point x="474" y="8" type="qcurve" smooth="yes"/>
			<point x="496" y="17"/>
			<point x="511" y="29" type="qcurve"/>
			<point x="511" y="129" type="line"/>
			<point x="496" y="114"/>
			<point x="475" y="103" type="qcurve" smooth="yes"/>
			<point x="457" y="93"/>
			<point x="404" y="78"/>
			<point x="369" y="78" type="qcurve" smooth="yes"/>
			<point x="273" y="78"/>
			<point x="166" y="206"/>
			<point x="166" y="331" type="qcurve" smooth="yes"/>
			<point x="166" y="401"/>
			<point x="190" y="496"/>
			<point x="238" y="555"/>
			<point x="311" y="581"/>
			<point x="359" y="581" type="qcurve" smooth="yes"/>
			<point x="388" y="581"/>
			<point x="440" y="571"/>
			<point x="459" y="566" type="qcurve" smooth="yes"/>
			<point x="481" y="559"/>
			<point x="500" y="551" type="qcurve"/>
			<point x="500" y="649" type="line"/>
			<point x="484" y="656"/>
			<point x="463" y="662" type="qcurve" smooth="yes"/>
			<point x="445" y="667"/>
			<point x="391" y="676"/>
			<point x="356" y="676" type="qcurve" smooth="yes"/>
		</contour>
	</outline>
</glyph>
<glyph name="D" format="2">
	<advance width="609"/>
	<unicode hex="0044"/>
	<note>
		D
	</note>
	<outline>
		<contour>
			<point x="88" y="655" type="line"/>
			<point x="88" y="7" type="line"/>
			<point x="135" y="7" type="line"/>
			<point x="248" y="7" type="line" smooth="yes"/>
			<point x="320" y="6"/>
			<point x="428" y="52"/>
			<point x="499" y="138"/>
			<point x="534" y="261"/>
			<point x="534" y="337" type="qcurve" smooth="yes"/>
			<point x="534" y="413"/>
			<point x="495" y="533"/>
			<point x="422" y="616"/>
			<point x="316" y="660"/>
			<point x="250" y="660" type="qcurve" smooth="yes"/>
			<point x="91" y="660" type="line"/>
		</contour>
		<contour>
			<point x="299" y="571"/>
			<point x="370" y="545"/>
			<point x="420" y="489"/>
			<point x="447" y="400"/>
			<point x="447" y="337" type="qcurve" smooth="yes"/>
			<point x="447" y="271"/>
			<point x="416" y="177"/>
			<point x="364" y="119"/>
			<point x="297" y="92"/>
			<point x="261" y="93" type="qcurve" smooth="yes"/>
			<point x="237" y="94"/>
			<point x="191" y="92"/>
			<point x="171" y="94" type="qcurve"/>
			<point x="171" y="572" type="line"/>
			<point x="188" y="574"/>
			<point x="233" y="573"/>
			<point x="256" y="572" type="qcurve" smooth="yes"/>
		</contour>
	</outline>
</glyph>
<glyph name="E" format="2">
	<advance width="609"/>
	<unicode hex="0045"/>
	<note>
		E
	</note>
	<outline>
		<contour>
			<point x="132" y="0" type="line"/>
			<point x="472" y="0" type="line"/>
			<point x="472" y="89" type="line"/>
			<point x="219" y="89" type="line"/>
			<point x="219" y="295" type="line"/>
			<point x="447" y="295" type="line"/>
			<point x="447" y="385" type="line"/>
			<point x="219" y="385" type="line"/>
			<point x="219" y="576" type="line"/>
			<point x="464" y="576" type="line"/>
			<point x="464" y="664" type="line"/>
			<point x="132" y="664" type="line"/>
		</contour>
	</outline>
</glyph>
<glyph name="F" format="2">
	<advance width="609"/>
	<unicode hex="0046"/>
	<note>
		F
	</note>
	<outline>
		<contour>
			<point x="171" y="0" type="line"/>
			<point x="258" y="0" type="line"/>
			<point x="258" y="285" type="line"/>
			<point x="478" y="285" type="line"/>
			<point x="478" y="375" type="line"/>
			<point x="258" y="375" type="line"/>
			<point x="258" y="576" type="line"/>
			<point x="495" y="576" type="line"/>
			<point x="495" y="664" type="line"/>
			<point x="171" y="664" type="line"/>
		</contour>
	</outline>
</glyph>
<glyph name="G" format="2">
	<advance width="609"/>
	<unicode hex="0047"/>
	<note>
		G
	</note>
	<outline>
		<contour>
			<point x="331" y="270" type="line"/>
			<point x="425" y="270" type="line"/>
			<point x="425" y="90" type="line"/>
			<point x="411" y="85"/>
			<point x="376" y="78"/>
			<point x="352" y="78" type="qcurve" smooth="yes"/>
			<point x="314" y="78"/>
			<point x="244" y="109"/>
			<point x="190" y="172"/>
			<point x="158" y="266"/>
			<point x="158" y="329" type="qcurve" smooth="yes"/>
			<point x="158" y="399"/>
			<point x="187" y="495"/>
			<point x="238" y="555"/>
			<point x="307" y="581"/>
			<point x="348" y="581" type="qcurve" smooth="yes"/>
			<point x="383" y="581"/>
			<point x="435" y="571"/>
			<point x="453" y="565" type="qcurve" smooth="yes"/>
			<point x="474" y="558"/>
			<point x="490" y="550" type="qcurve"/>
			<point x="490" y="648" type="line"/>
			<point x="475" y="656"/>
			<point x="454" y="662" type="qcurve" smooth="yes"/>
			<point x="436" y="667"/>
			<point x="384" y="676"/>
			<point x="350" y="676" type="qcurve" smooth="yes"/>
			<point x="289" y="676"/>
			<point x="186" y="629"/>
			<point x="111" y="540"/>
			<point x="69" y="412"/>
			<point x="69" y="332" type="qcurve" smooth="yes"/>
			<point x="69" y="251"/>
			<point x="111" y="123"/>
			<point x="184" y="34"/>
			<point x="282" y="-13"/>
			<point x="338" y="-13" type="qcurve" smooth="yes"/>
			<point x="379" y="-13"/>
			<point x="441" y="1"/>
			<point x="463" y="9" type="qcurve" smooth="yes"/>
			<point x="489" y="19"/>
			<point x="508" y="31" type="qcurve"/>
			<point x="508" y="359" type="line"/>
			<point x="331" y="359" type="line"/>
		</contour>
	</outline>
</glyph>
<glyph name="H" format="2">
	<advance width="609"/>
	<unicode hex="0048"/>
	<note>
		H
	</note>
	<outline>
		<contour>
			<point x="424" y="0" type="line"/>
			<point x="511" y="0" type="line"/>
			<point x="511" y="664" type="line"/>
			<point x="424" y="664" type="line"/>
			<point x="424" y="394" type="line"/>
			<point x="193" y="394" type="line"/>
			<point x="193" y="664" type="line"/>
			<point x="106" y="664" type="line"/>
			<point x="106" y="0" type="line"/>
			<point x="193" y="0" type="line"/>
			<point x="193" y="304" type="line"/>
			<point x="424" y="304" type="line"/>
		</contour>
	</outline>
</glyph>
<glyph name="I" format="2">
	<advance width="609"/>
	<unicode hex="0049"/>
	<note>
		I
	</note>
	<outline>
		<contour>
			<point x="169" y="664" type="line"/>
			<point x="169" y="582" type="line"/>
			<point x="262" y="582" type="line"/>
			<point x="262" y="81" type="line"/>
			<point x="169" y="81" type="line"/>
			<point x="169" y="-1" type="line"/>
			<point x="440" y="-1" type="line"/>
			<point x="440" y="82" type="line"/>
			<point x="417" y="82"/>
			<point x="372" y="81"/>
			<point x="349" y="81" type="qcurve"/>
			<point x="349" y="582" type="line"/>
			<point x="440" y="582" type="line"/>
			<point x="440" y="665" type="line"/>
		</contour>
	</outline>
</glyph>
<glyph name="J" format="2">
	<advance width="609"/>
	<unicode hex="004A"/>
	<note>
		J
	</note>
	<outline>
		<contour>
			<point x="133" y="665" type="line"/>
			<point x="133" y="583" type="line"/>
			<point x="352" y="583" type="line"/>
			<point x="352" y="183" type="line" smooth="yes"/>
			<point x="352" y="134"/>
			<point x="311" y="84"/>
			<point x="259" y="84" type="qcurve" smooth="yes"/>
			<point x="239" y="84"/>
			<point x="191" y="99"/>
			<point x="170" y="108" type="qcurve" smooth="yes"/>
			<point x="145" y="119"/>
			<point x="121" y="132" type="qcurve"/>
			<point x="121" y="46" type="line"/>
			<point x="142" y="30"/>
			<point x="165" y="19" type="qcurve" smooth="yes"/>
			<point x="185" y="9"/>
			<point x="235" y="-7"/>
			<point x="262" y="-7" type="qcurve" smooth="yes"/>
			<point x="301" y="-7"/>
			<point x="366" y="17"/>
			<point x="413" y="63"/>
			<point x="440" y="128"/>
			<point x="440" y="170" type="qcurve" smooth="yes"/>
			<point x="440" y="588" type="line"/>
			<point x="441" y="666" type="line"/>
		</contour>
	</outline>
</glyph>
<glyph name="K" format="2">
	<advance width="609"/>
	<unicode hex="004B"/>
	<note>
		K
	</note>
	<outline>
		<contour>
			<point x="128" y="0" type="line"/>
			<point x="216" y="0" type="line"/>
			<point x="216" y="321" type="line"/>
			<point x="451" y="0" type="line"/>
			<point x="559" y="0" type="line"/>
			<point x="303" y="340" type="line"/>
			<point x="552" y="663" type="line"/>
			<point x="448" y="663" type="line"/>
			<point x="216" y="360" type="line"/>
			<point x="216" y="663" type="line"/>
			<point x="128" y="663" type="line"/>
		</contour>
	</outline>
</glyph>
<glyph name="L" format="2">
	<advance width="609"/>
	<unicode hex="004C"/>
	<note>
		L
	</note>
	<outline>
		<contour>
			<point x="178" y="0" type="line"/>
			<point x="514" y="0" type="line"/>
			<point x="514" y="89" type="line"/>
			<point x="266" y="89" type="line"/>
			<point x="266" y="664" type="line"/>
			<point x="178" y="664" type="line"/>
		</contour>
	</outline>
</glyph>
<glyph name="M" format="2">
	<advance width="609"/>
	<unicode hex="004D"/>
	<note>
		M
	</note>
	<outline>
		<contour>
			<point x="323" y="152" type="line"/>
			<point x="438" y="493" type="line"/>
			<point x="438" y="2" type="line"/>
			<point x="518" y="2" type="line"/>
			<point x="518" y="664" type="line"/>
			<point x="420" y="664" type="line"/>
			<point x="306" y="322" type="line"/>
			<point x="188" y="664" type="line"/>
			<point x="90" y="664" type="line"/>
			<point x="90" y="2" type="line"/>
			<point x="170" y="2" type="line"/>
			<point x="170" y="484" type="line"/>
			<point x="281" y="152" type="line"/>
		</contour>
	</outline>
</glyph>
<glyph name="N" format="2">
	<advance width="609"/>
	<unicode hex="004E"/>
	<note>
		N
	</note>
	<outline>
		<contour>
			<point x="102" y="0" type="line"/>
			<point x="189" y="0" type="line"/>
			<point x="189" y="472" type="line"/>
			<point x="438" y="1" type="line"/>
			<point x="516" y="0" type="line"/>
			<point x="516" y="664" type="line"/>
			<point x="429" y="664" type="line"/>
			<point x="429" y="189" type="line"/>
			<point x="171" y="664" type="line"/>
			<point x="102" y="664" type="line"/>
		</contour>
	</outline>
</glyph>
<glyph name="O" format="2">
	<advance width="609"/>
	<unicode hex="004F"/>
	<note>
		O
	</note>
	<outline>
		<contour>
			<point x="26" y="262"/>
			<point x="59" y="136"/>
			<point x="128" y="43"/>
			<point x="232" y="-11"/>
			<point x="304" y="-11" type="qcurve" smooth="yes"/>
			<point x="376" y="-11"/>
			<point x="481" y="43"/>
			<point x="550" y="136"/>
			<point x="583" y="262"/>
			<point x="583" y="333" type="qcurve" smooth="yes"/>
			<point x="583" y="405"/>
			<point x="548" y="530"/>
			<point x="479" y="623"/>
			<point x="374" y="677"/>
			<point x="304" y="677" type="qcurve" smooth="yes"/>
			<point x="235" y="677"/>
			<point x="130" y="623"/>
			<point x="61" y="530"/>
			<point x="26" y="405"/>
			<point x="26" y="333" type="qcurve" smooth="yes"/>
		</contour>
		<contour>
			<point x="119" y="384"/>
			<point x="139" y="477"/>
			<point x="184" y="546"/>
			<point x="254" y="587"/>
			<point x="304" y="587" type="qcurve" smooth="yes"/>
			<point x="354" y="587"/>
			<point x="425" y="546"/>
			<point x="469" y="477"/>
			<point x="489" y="384"/>
			<point x="489" y="333" type="qcurve" smooth="yes"/>
			<point x="489" y="282"/>
			<point x="469" y="190"/>
			<point x="425" y="121"/>
			<point x="354" y="80"/>
			<point x="304" y="80" type="qcurve" smooth="yes"/>
			<point x="255" y="80"/>
			<point x="185" y="121"/>
			<point x="140" y="190"/>
			<point x="119" y="282"/>
			<point x="119" y="333" type="qcurve" smooth="yes"/>
		</contour>
	</outline>
</glyph>
<glyph name="P" format="2">
	<advance width="609"/>
	<unicode hex="0050"/>
	<note>
		P
	</note>
	<outline>
		<contour>
			<point x="156" y="0" type="line"/>
			<point x="239" y="0" type="line"/>
			<point x="239" y="249" type="line"/>
			<point x="249" y="248"/>
			<point x="292" y="248"/>
			<point x="307" y="248" type="qcurve" smooth="yes"/>
			<point x="350" y="248"/>
			<point x="432" y="273"/>
			<point x="497" y="325"/>
			<point x="536" y="407"/>
			<point x="536" y="463" type="qcurve" smooth="yes"/>
			<point x="536" y="562"/>
			<point x="424" y="666"/>
			<point x="316" y="663" type="qcurve" smooth="yes"/>
			<point x="282" y="662"/>
			<point x="224" y="662"/>
			<point x="202" y="662" type="qcurve" smooth="yes"/>
			<point x="176" y="662"/>
			<point x="156" y="663" type="qcurve"/>
		</contour>
		<contour>
			<point x="337" y="581"/>
			<point x="386" y="569"/>
			<point x="425" y="540"/>
			<point x="448" y="493"/>
			<point x="448" y="458" type="qcurve" smooth="yes"/>
			<point x="448" y="428"/>
			<point x="425" y="383"/>
			<point x="386" y="353"/>
			<point x="334" y="340"/>
			<point x="305" y="341" type="qcurve" smooth="yes"/>
			<point x="290" y="342"/>
			<point x="250" y="340"/>
			<point x="239" y="342" type="qcurve"/>
			<point x="239" y="580" type="line"/>
			<point x="254" y="581"/>
			<point x="297" y="581"/>
			<point x="311" y="581" type="qcurve" smooth="yes"/>
		</contour>
	</outline>
</glyph>
<glyph name="Q" format="2">
	<advance width="609"/>
	<unicode hex="0051"/>
	<note>
		Q
	</note>
	<outline>
		<contour>
			<point x="76" y="268"/>
			<point x="100" y="143"/>
			<point x="153" y="50"/>
			<point x="239" y="-4"/>
			<point x="301" y="-4" type="qcurve" smooth="yes"/>
			<point x="319" y="-4"/>
			<point x="347" y="1"/>
			<point x="372" y="10"/>
			<point x="395" y="24"/>
			<point x="408" y="34" type="qcurve"/>
			<point x="505" y="-88" type="line"/>
			<point x="555" y="-19" type="line"/>
			<point x="466" y="93" type="line"/>
			<point x="497" y="141"/>
			<point x="527" y="268"/>
			<point x="527" y="340" type="qcurve" smooth="yes"/>
			<point x="527" y="412"/>
			<point x="502" y="537"/>
			<point x="448" y="630"/>
			<point x="362" y="684"/>
			<point x="301" y="684" type="qcurve" smooth="yes"/>
			<point x="241" y="684"/>
			<point x="156" y="630"/>
			<point x="101" y="537"/>
			<point x="76" y="412"/>
			<point x="76" y="340" type="qcurve" smooth="yes"/>
		</contour>
		<contour>
			<point x="157" y="391"/>
			<point x="169" y="484"/>
			<point x="202" y="553"/>
			<point x="257" y="594"/>
			<point x="301" y="594" type="qcurve" smooth="yes"/>
			<point x="344" y="594"/>
			<point x="400" y="553"/>
			<point x="432" y="484"/>
			<point x="445" y="391"/>
			<point x="445" y="340" type="qcurve" smooth="yes"/>
			<point x="445" y="291"/>
			<point x="429" y="197"/>
			<point x="412" y="164" type="qcurve"/>
			<point x="313" y="294" type="line"/>
			<point x="263" y="225" type="line"/>
			<point x="271" y="214"/>
			<point x="297" y="181"/>
			<point x="324" y="146"/>
			<point x="350" y="112"/>
			<point x="358" y="102" type="qcurve"/>
			<point x="344" y="94"/>
			<point x="322" y="87"/>
			<point x="301" y="87" type="qcurve" smooth="yes"/>
			<point x="259" y="87"/>
			<point x="203" y="128"/>
			<point x="170" y="197"/>
			<point x="157" y="289"/>
			<point x="157" y="340" type="qcurve" smooth="yes"/>
		</contour>
	</outline>
</glyph>
<glyph name="R" format="2">
	<advance width="609"/>
	<unicode hex="0052"/>
	<note>
		R
	</note>
	<outline>
		<contour>
			<point x="233" y="214" type="line"/>
			<point x="287" y="214" type="line"/>
			<point x="457" y="-19" type="line"/>
			<point x="573" y="-19" type="line" smooth="yes"/>
			<point x="572" y="-19"/>
			<point x="543" y="17"/>
			<point x="499" y="71"/>
			<point x="448" y="134"/>
			<point x="404" y="188"/>
			<point x="376" y="224"/>
			<point x="376" y="224" type="qcurve"/>
			<point x="405" y="234"/>
			<point x="456" y="271"/>
			<point x="495" y="325"/>
			<point x="517" y="395"/>
			<point x="517" y="439" type="qcurve" smooth="yes"/>
			<point x="517" y="487"/>
			<point x="492" y="569"/>
			<point x="441" y="628"/>
			<point x="362" y="661"/>
			<point x="308" y="661" type="qcurve" smooth="yes"/>
			<point x="133" y="661" type="line"/>
			<point x="133" y="0" type="line"/>
			<point x="222" y="0" type="line"/>
			<point x="222" y="214" type="line"/>
		</contour>
		<contour>
			<point x="295" y="567" type="line" smooth="yes"/>
			<point x="363" y="567"/>
			<point x="423" y="499"/>
			<point x="423" y="433" type="qcurve" smooth="yes"/>
			<point x="423" y="374"/>
			<point x="366" y="300"/>
			<point x="312" y="300" type="qcurve" smooth="yes"/>
			<point x="306" y="300"/>
			<point x="275" y="299"/>
			<point x="245" y="299"/>
			<point x="222" y="299"/>
			<point x="223" y="300" type="qcurve"/>
			<point x="223" y="567" type="line"/>
			<point x="237" y="567" type="line"/>
		</contour>
	</outline>
</glyph>
<glyph name="S" format="2">
	<advance width="609"/>
	<unicode hex="0053"/>
	<note>
		S
	</note>
	<outline>
		<contour>
			<point x="510" y="512" type="line"/>
			<point x="504" y="557"/>
			<point x="484" y="591" type="qcurve" smooth="yes"/>
			<point x="475" y="606"/>
			<point x="450" y="634"/>
			<point x="414" y="656"/>
			<point x="366" y="669"/>
			<point x="336" y="669" type="qcurve" smooth="yes"/>
			<point x="243" y="669"/>
			<point x="139" y="572"/>
			<point x="139" y="481" type="qcurve" smooth="yes"/>
			<point x="139" y="448"/>
			<point x="159" y="397"/>
			<point x="193" y="356"/>
			<point x="238" y="324"/>
			<point x="263" y="311" type="qcurve" smooth="yes"/>
			<point x="341" y="273"/>
			<point x="424" y="218"/>
			<point x="424" y="183" type="qcurve" smooth="yes"/>
			<point x="424" y="165"/>
			<point x="410" y="130"/>
			<point x="383" y="101"/>
			<point x="342" y="81"/>
			<point x="314" y="79" type="qcurve" smooth="yes"/>
			<point x="267" y="75"/>
			<point x="213" y="115"/>
			<point x="208" y="147" type="qcurve"/>
			<point x="112" y="147" type="line"/>
			<point x="112" y="133"/>
			<point x="122" y="81"/>
			<point x="160" y="29"/>
			<point x="237" y="-9"/>
			<point x="305" y="-8" type="qcurve" smooth="yes"/>
			<point x="404" y="-7"/>
			<point x="520" y="96"/>
			<point x="520" y="188" type="qcurve" smooth="yes"/>
			<point x="520" y="225"/>
			<point x="494" y="281"/>
			<point x="451" y="323"/>
			<point x="394" y="356"/>
			<point x="364" y="371" type="qcurve" smooth="yes"/>
			<point x="332" y="387"/>
			<point x="284" y="413"/>
			<point x="252" y="438"/>
			<point x="237" y="467"/>
			<point x="237" y="486" type="qcurve" smooth="yes"/>
			<point x="237" y="531"/>
			<point x="289" y="583"/>
			<point x="334" y="581" type="qcurve" smooth="yes"/>
			<point x="366" y="580"/>
			<point x="414" y="538"/>
			<point x="419" y="512" type="qcurve"/>
		</contour>
	</outline>
</glyph>
<glyph name="T" format="2">
	<advance width="609"/>
	<unicode hex="0054"/>
	<note>
		T
	</note>
	<outline>
		<contour>
			<point x="78" y="576" type="line"/>
			<point x="258" y="576" type="line"/>
			<point x="258" y="0" type="line"/>
			<point x="349" y="0" type="line"/>
			<point x="349" y="576" type="line"/>
			<point x="531" y="576" type="line"/>
			<point x="531" y="664" type="line"/>
			<point x="78" y="664" type="line"/>
		</contour>
	</outline>
</glyph>
<glyph name="U" format="2">
	<advance width="609"/>
	<unicode hex="0055"/>
	<note>
		U
	</note>
	<outline>
		<contour>
			<point x="89" y="200" type="line" smooth="yes"/>
			<point x="89" y="163"/>
			<point x="110" y="88"/>
			<point x="159" y="27"/>
			<point x="241" y="-12"/>
			<point x="302" y="-12" type="qcurve" smooth="yes"/>
			<point x="363" y="-12"/>
			<point x="447" y="27"/>
			<point x="498" y="88"/>
			<point x="520" y="164"/>
			<point x="520" y="200" type="qcurve" smooth="yes"/>
			<point x="520" y="665" type="line"/>
			<point x="432" y="665" type="line"/>
			<point x="432" y="219" type="line" smooth="yes"/>
			<point x="432" y="193"/>
			<point x="418" y="144"/>
			<point x="386" y="105"/>
			<point x="337" y="82"/>
			<point x="302" y="82" type="qcurve" smooth="yes"/>
			<point x="266" y="82"/>
			<point x="217" y="105"/>
			<point x="189" y="144"/>
			<point x="177" y="193"/>
			<point x="177" y="219" type="qcurve" smooth="yes"/>
			<point x="177" y="665" type="line"/>
			<point x="89" y="665" type="line"/>
		</contour>
	</outline>
</glyph>
<glyph name="V" format="2">
	<advance width="609"/>
	<unicode hex="0056"/>
	<note>
		V
	</note>
	<outline>
		<contour>
			<point x="343" y="0" type="line"/>
			<point x="567" y="664" type="line"/>
			<point x="472" y="664" type="line"/>
			<point x="317" y="182" type="line" smooth="yes"/>
			<point x="310" y="162"/>
			<point x="305" y="138" type="qcurve"/>
			<point x="303" y="149"/>
			<point x="296" y="171"/>
			<point x="293" y="182" type="qcurve" smooth="yes"/>
			<point x="138" y="664" type="line"/>
			<point x="43" y="664" type="line"/>
			<point x="267" y="0" type="line"/>
		</contour>
	</outline>
</glyph>
<glyph name="W" format="2">
	<advance width="609"/>
	<unicode hex="0057"/>
	<note>
		W
	</note>
	<outline>
		<contour>
			<point x="281" y="504" type="line"/>
			<point x="195" y="189" type="line"/>
			<point x="171" y="664" type="line"/>
			<point x="94" y="664" type="line"/>
			<point x="123" y="2" type="line"/>
			<point x="215" y="2" type="line"/>
			<point x="306" y="327" type="line"/>
			<point x="400" y="2" type="line"/>
			<point x="492" y="2" type="line"/>
			<point x="514" y="664" type="line"/>
			<point x="436" y="664" type="line"/>
			<point x="420" y="177" type="line"/>
			<point x="323" y="504" type="line"/>
		</contour>
	</outline>
</glyph>
<glyph name="X" format="2">
	<advance width="609"/>
	<unicode hex="0058"/>
	<note>
		X
	</note>
	<outline>
		<contour>
			<point x="446" y="664" type="line"/>
			<point x="305" y="419" type="line"/>
			<point x="164" y="664" type="line"/>
			<point x="64" y="664" type="line"/>
			<point x="256" y="335" type="line"/>
			<point x="63" y="0" type="line"/>
			<point x="159" y="0" type="line"/>
			<point x="305" y="250" type="line"/>
			<point x="451" y="0" type="line"/>
			<point x="547" y="0" type="line"/>
			<point x="354" y="335" type="line"/>
			<point x="546" y="664" type="line"/>
		</contour>
	</outline>
</glyph>
<glyph name="Y" format="2">
	<advance width="609"/>
	<unicode hex="0059"/>
	<note>
		Y
	</note>
	<outline>
		<contour>
			<point x="259" y="0" type="line"/>
			<point x="349" y="0" type="line"/>
			<point x="349" y="270" type="line"/>
			<point x="567" y="664" type="line"/>
			<point x="463" y="664" type="line"/>
			<point x="320" y="393" type="line"/>
			<point x="305" y="359" type="line"/>
			<point x="290" y="391" type="line"/>
			<point x="147" y="664" type="line"/>
			<point x="43" y="664" type="line"/>
			<point x="97" y="569"/>
			<point x="205" y="367"/>
			<point x="259" y="270" type="qcurve"/>
		</contour>
	</outline>
</glyph>
<glyph name="Z" format="2">
	<advance width="609"/>
	<unicode hex="005A"/>
	<note>
		Z
	</note>
	<outline>
		<contour>
			<point x="381" y="573" type="line"/>
			<point x="98" y="54" type="line"/>
			<point x="98" y="0" type="line"/>
			<point x="512" y="0" type="line"/>
			<point x="512" y="90" type="line"/>
			<point x="218" y="90" type="line"/>
			<point x="503" y="605" type="line"/>
			<point x="503" y="664" type="line"/>
			<point x="98" y="664" type="line"/>
			<point x="98" y="573" type="line"/>
		</contour>
	</outline>
</glyph>
<glyph name=".notdef" format="2">
	<advance width="609"/>
	<note>
		.notdef
	</note>
	<outline>
		<contour>
			<point x="49" y="0" type="line"/>
			<point x="560" y="0" type="line"/>
			<point x="560" y="548" type="line"/>
			<point x="49" y="548" type="line"/>
		</contour>
		<contour>
			<point x="104" y="504" type="line"/>
			<point x="507" y="504" type="line"/>
			<point x="507" y="41" type="line"/>
			<point x="104" y="41" type="line"/>
		</contour>
	</outline>
</glyph>
